<?xml version="1.0" encoding="UTF-8" standalone="no"?>
<!-- Created with Inkscape (http://www.inkscape.org/) -->

<svg
   version="1.1"
   id="svg182"
   width="254.42322"
   height="55.046017"
   viewBox="0 0 254.42321 55.046019"
   sodipodi:docname="3.png"
   xml:space="preserve"
   xmlns:inkscape="http://www.inkscape.org/namespaces/inkscape"
   xmlns:sodipodi="http://sodipodi.sourceforge.net/DTD/sodipodi-0.dtd"
   xmlns="http://www.w3.org/2000/svg"
   xmlns:svg="http://www.w3.org/2000/svg"><defs
     id="defs186"><clipPath
       id="clip0_15_38"><rect
         width="76"
         height="41"
         fill="#ffffff"
         transform="translate(12,23)"
         id="rect1408"
         x="0"
         y="0" /></clipPath><clipPath
       id="clip1_15_38"><rect
         width="76"
         height="41"
         fill="#ffffff"
         transform="matrix(-1,0,0,1,390,33)"
         id="rect1411"
         x="0"
         y="0" /></clipPath></defs><sodipodi:namedview
     id="namedview184"
     pagecolor="#ffffff"
     bordercolor="#666666"
     borderopacity="1.0"
     inkscape:showpageshadow="2"
     inkscape:pageopacity="0.0"
     inkscape:pagecheckerboard="0"
     inkscape:deskcolor="#d1d1d1"
     showgrid="false" /><g
     inkscape:groupmode="layer"
     inkscape:label="Image"
     id="g188"
     transform="translate(-890.23501,-1870.7907)"><g
       id="g2981"><g
         clip-path="url(#clip1_15_38)"
         id="g1465"
         transform="translate(754.66029,1851.8414)"
         style="fill:none"><path
           d="m 322.312,50.2988 c -1.209,1.7439 -1.269,4.24 -0.09,6.0785 1.164,1.8684 3.372,2.9147 5.539,2.9197 2.188,0.0448 4.351,-1.0015 5.72,-2.7104 1.338,-1.7239 1.948,-3.9361 1.773,-6.0835 -0.17,-2.1474 -1.144,-4.2251 -2.712,-5.7148 -1.584,-1.4847 -3.632,-2.3367 -5.73,-2.6506 -1.054,-0.1495 -2.128,-0.1146 -3.177,0.0299 -1.053,0.1544 -2.067,0.4932 -3.022,0.9367 -0.959,0.4534 -1.823,1.0712 -2.612,1.7637 -0.779,0.7075 -1.429,1.5396 -1.988,2.4215 -0.045,0.0697 -0.025,0.1644 0.045,0.2092 0.07,0.0449 0.16,0.0249 0.205,-0.0398 l 0.005,-0.005 c 0.579,-0.8371 1.229,-1.6193 2.003,-2.272 0.784,-0.6377 1.628,-1.1957 2.557,-1.5943 0.929,-0.3837 1.893,-0.6776 2.892,-0.8072 0.994,-0.1146 2.003,-0.1245 2.992,0.0349 1.964,0.3238 3.862,1.1958 5.285,2.546 1.419,1.3652 2.293,3.2634 2.438,5.2165 0.155,1.9482 -0.435,3.961 -1.624,5.5006 -1.188,1.5196 -3.097,2.4812 -5.05,2.4613 -1.923,0 -3.956,-0.8321 -5.04,-2.4713 -0.544,-0.8071 -0.859,-1.7687 -0.899,-2.7552 -0.045,-0.9865 0.22,-1.983 0.71,-2.8599 0.035,-0.0648 0.015,-0.1445 -0.05,-0.1794 -0.05,-0.0498 -0.13,-0.0299 -0.17,0.0249 z"
           fill="#d4b0a5"
           id="path1447" /><path
           d="m 328.141,42.7754 c 0.01,0.0498 0.065,0.1644 0.155,0.2093 0.1,0.0448 0.075,0.0299 0.115,0.0448 l 0.145,0.0548 0.284,0.1146 c 0.19,0.0748 0.38,0.1595 0.565,0.2392 0.374,0.1694 0.744,0.3438 1.104,0.5431 0.729,0.3786 1.418,0.8221 2.093,1.2854 1.333,0.9467 2.532,2.0727 3.491,3.3781 0.949,1.3053 1.679,2.7702 2.058,4.3396 0.39,1.5794 0.54,3.2087 0.635,4.8578 0.124,1.6442 0.174,3.3482 0.754,4.9974 0.289,0.8171 0.724,1.5943 1.288,2.257 0.56,0.6676 1.239,1.2157 1.959,1.679 1.453,0.9118 3.037,1.5147 4.645,1.993 1.608,0.4683 3.247,0.8071 4.885,1.1011 h 0.005 l 0.05,-0.3737 c -0.744,-0.1744 -1.423,-0.7224 -1.923,-1.3353 -0.509,-0.6327 -0.874,-1.3701 -1.159,-2.1424 -0.569,-1.5445 -0.794,-3.2236 -0.854,-4.8877 -0.06,-0.842 -0.02,-1.6641 -0.055,-2.5261 -0.04,-0.8719 -0.01,-1.7488 -0.19,-2.6157 -0.19,-1.7488 -0.804,-3.4528 -1.648,-5.0073 -0.829,-1.5794 -2.093,-2.8898 -3.472,-3.9759 -0.359,-0.2541 -0.689,-0.5581 -1.074,-0.7723 l -1.129,-0.6776 c -0.789,-0.3737 -1.563,-0.7872 -2.392,-1.0613 -1.624,-0.6327 -3.312,-1.0463 -5.01,-1.3402 l -1.279,-0.1993 -1.284,-0.1395 -0.639,-0.0698 c -0.24,-0.0149 -0.49,-0.0299 -0.739,-0.0299 -0.515,0 -0.969,0.0648 -1.384,0.0598 z m 0.355,0.0648 c 0.439,0.0747 0.834,0.2142 1.174,0.2989 0.174,0.0399 0.349,0.0648 0.534,0.0897 l 0.629,0.0997 1.254,0.2042 1.244,0.2641 c 1.648,0.3737 3.287,0.8121 4.825,1.4798 1.544,0.6427 3.022,1.4449 4.296,2.4961 l 0.489,0.3787 0.44,0.4335 0.44,0.4334 c 0.149,0.1395 0.289,0.289 0.409,0.4534 l 0.764,0.9616 c 0.22,0.3438 0.42,0.7026 0.635,1.0463 0.23,0.3388 0.369,0.7275 0.534,1.1011 0.155,0.3787 0.35,0.7424 0.44,1.146 l 0.344,1.1808 c 0.095,0.3986 0.14,0.8121 0.21,1.2157 0.175,0.8072 0.145,1.6442 0.21,2.4713 0.05,0.837 0.03,1.7239 0.11,2.5808 0.14,1.724 0.44,3.4678 1.124,5.102 0.339,0.8171 0.809,1.5894 1.413,2.2471 0.615,0.6477 1.374,1.2057 2.333,1.3303 0.105,0.0149 0.2,-0.0598 0.21,-0.1645 0.015,-0.0996 -0.06,-0.1943 -0.16,-0.2092 h -0.005 c -1.618,-0.3488 -3.227,-0.7524 -4.79,-1.2655 -1.564,-0.5033 -3.097,-1.1261 -4.446,-2.0129 -0.664,-0.4534 -1.279,-0.9716 -1.783,-1.5745 -0.505,-0.6028 -0.889,-1.2954 -1.149,-2.0427 -0.524,-1.4997 -0.569,-3.1589 -0.684,-4.808 -0.11,-1.6542 -0.275,-3.3382 -0.695,-4.9824 -0.419,-1.6542 -1.188,-3.2186 -2.227,-4.5589 -1.034,-1.3502 -2.313,-2.4912 -3.707,-3.4328 -0.709,-0.4534 -1.433,-0.8819 -2.198,-1.2407 -0.374,-0.1893 -0.764,-0.3537 -1.148,-0.5131 -0.195,-0.0748 -0.39,-0.1545 -0.59,-0.2243 l -0.3,-0.1046 -0.149,-0.0498 c -0.01,0 -0.085,-0.0349 -0.035,-0.005 0.04,0.0399 0.045,0.1445 0.005,0.1744 z"
           fill="#d4b0a5"
           id="path1449" /><path
           d="m 338.086,45.1769 c 1.189,0.4136 2.383,1.0413 3.472,1.7588 1.104,0.7125 2.128,1.5346 3.087,2.4264 1.883,1.8236 3.511,3.9212 4.75,6.2429 0.624,1.151 1.159,2.3517 1.604,3.5923 0.444,1.2456 0.814,2.5211 1.193,3.8116 0.385,1.2904 0.78,2.6008 1.329,3.8763 0.55,1.2705 1.269,2.5161 2.248,3.5325 0.974,1.0164 2.108,1.8733 3.347,2.5011 1.213,0.6826 2.642,1.0912 4.066,1.0762 1.433,0 2.837,-0.4733 4.016,-1.2506 1.173,-0.7922 2.122,-1.9281 2.632,-3.2584 0.519,-1.3204 0.519,-2.8848 -0.145,-4.1703 -0.32,-0.6427 -0.784,-1.2057 -1.324,-1.6591 -0.534,-0.4435 -1.133,-0.867 -1.833,-1.0663 -1.378,-0.4534 -2.992,-0.0797 -3.996,0.9816 -0.499,0.5181 -0.839,1.2655 -0.744,2.0178 0.085,0.7623 0.574,1.3752 1.114,1.8286 0.095,0.0797 0.24,0.0647 0.319,-0.0299 0.08,-0.0947 0.065,-0.2342 -0.025,-0.3139 l -0.009,-0.01 c -0.48,-0.4135 -0.865,-0.9367 -0.92,-1.5296 -0.065,-0.5879 0.205,-1.1808 0.635,-1.6192 0.869,-0.8919 2.283,-1.2058 3.461,-0.7922 0.6,0.1743 1.124,0.558 1.614,0.9715 0.484,0.4185 0.884,0.9267 1.154,1.4898 0.559,1.131 0.544,2.4812 0.07,3.652 -0.47,1.1759 -1.339,2.1923 -2.408,2.8898 -1.069,0.6926 -2.338,1.0762 -3.611,1.0513 -1.269,-0.0149 -2.523,-0.3936 -3.632,-1.0563 -1.154,-0.6178 -2.173,-1.4349 -3.042,-2.3766 -1.748,-1.9082 -2.487,-4.4891 -3.197,-7.06 -0.344,-1.2954 -0.729,-2.6058 -1.169,-3.9012 -0.454,-1.2954 -1.004,-2.5609 -1.653,-3.7816 -1.314,-2.4165 -3.027,-4.6237 -5.055,-6.502 -2.078,-1.8236 -4.406,-3.3731 -7.138,-4.1553 -0.225,-0.0648 -0.459,0.0647 -0.524,0.289 -0.065,0.2192 0.055,0.4434 0.269,0.5181 z"
           fill="#d4b0a5"
           id="path1451" /><path
           d="m 314.49,53.0541 c 0.524,-2.9745 1.863,-5.8493 3.806,-8.1462 1.948,-2.3069 4.535,-4.0258 7.392,-4.9774 1.429,-0.4783 2.908,-0.8221 4.416,-0.9815 0.375,-0.0598 0.754,-0.0847 1.129,-0.1097 0.38,-0.0249 0.754,-0.0647 1.134,-0.0797 0.759,-0.005 1.518,-0.0498 2.283,-0.005 3.047,0.0997 6.089,0.5332 8.996,1.42 2.912,0.867 5.684,2.1674 8.307,3.7219 2.617,1.5744 5.08,3.4179 7.527,5.3162 2.453,1.8883 4.91,3.8464 7.698,5.3859 1.393,0.7673 2.872,1.415 4.43,1.8385 0.385,0.1146 0.789,0.1844 1.179,0.274 0.395,0.0798 0.799,0.1246 1.199,0.1844 0.399,0.0399 0.799,0.0598 1.199,0.0897 l 1.208,0.0199 c 3.242,-0.0648 6.439,-1.2705 8.907,-3.3531 2.472,-2.0777 4.161,-5.0721 4.58,-8.2658 0.485,-3.1887 -0.544,-6.6017 -2.767,-8.9434 -2.188,-2.3666 -5.46,-3.7118 -8.687,-3.4029 -0.404,0.0199 -0.799,0.1295 -1.193,0.1993 -0.385,0.1195 -0.78,0.2142 -1.149,0.3786 -0.755,0.289 -1.454,0.7075 -2.088,1.1958 -1.279,0.9815 -2.258,2.3317 -2.812,3.8364 -0.275,0.7524 -0.435,1.5446 -0.505,2.3417 -0.055,0.8022 0.025,1.6193 0.245,2.3916 0.429,1.5545 1.433,2.9396 2.772,3.8314 1.334,0.8969 2.972,1.3453 4.586,1.136 1.603,-0.2292 3.077,-1.1958 3.921,-2.5659 0.419,-0.6826 0.689,-1.4599 0.779,-2.257 0.11,-0.7972 -0.01,-1.6293 -0.34,-2.3667 -0.644,-1.4847 -2.158,-2.536 -3.771,-2.6257 -0.085,-0.005 -0.16,0.0598 -0.165,0.1395 -0.005,0.0847 0.06,0.1545 0.145,0.1644 1.504,0.0997 2.887,1.0912 3.467,2.4663 0.294,0.6826 0.394,1.4399 0.289,2.1773 -0.095,0.7424 -0.349,1.4599 -0.749,2.0876 -0.799,1.2606 -2.168,2.1375 -3.641,2.3318 -1.474,0.1794 -3.022,-0.2541 -4.241,-1.1011 -1.234,-0.842 -2.148,-2.1325 -2.528,-3.5674 -0.194,-0.7175 -0.259,-1.4648 -0.204,-2.2022 0.074,-0.7424 0.224,-1.4798 0.489,-2.1773 0.535,-1.3901 1.454,-2.6357 2.647,-3.5325 0.595,-0.4484 1.244,-0.8271 1.944,-1.0862 0.339,-0.1544 0.704,-0.2292 1.063,-0.3388 0.365,-0.0598 0.73,-0.1544 1.099,-0.1644 1.474,-0.1196 3.007,0.1395 4.381,0.7125 1.379,0.573 2.622,1.4548 3.621,2.5559 2.033,2.2072 2.923,5.3262 2.438,8.2559 -0.43,2.9445 -2.028,5.6749 -4.331,7.5632 -2.302,1.8883 -5.254,2.9496 -8.222,2.9745 l -1.118,-0.0299 c -0.375,-0.0349 -0.75,-0.0548 -1.119,-0.0947 -0.365,-0.0647 -0.735,-0.1046 -1.099,-0.1793 -0.36,-0.0897 -0.73,-0.1545 -1.084,-0.2641 -1.434,-0.4086 -2.807,-1.0264 -4.126,-1.7737 -2.633,-1.4997 -5.045,-3.4279 -7.493,-5.3212 -2.447,-1.9083 -4.95,-3.8016 -7.647,-5.4308 -2.698,-1.6243 -5.595,-2.9695 -8.647,-3.8364 -3.042,-0.8969 -6.204,-1.3204 -9.355,-1.3951 -3.152,-0.0847 -6.374,0.2989 -9.371,1.405 -2.997,1.0862 -5.739,2.9695 -7.703,5.4856 -1.948,2.5161 -3.231,5.5056 -3.606,8.6544 -0.015,0.1345 0.08,0.2541 0.215,0.2691 0.13,0.0149 0.245,-0.0748 0.27,-0.1993 z"
           fill="#d4b0a5"
           id="path1453" /><path
           d="m 319.799,43.2936 c 0.295,-0.1495 0.575,-0.2043 0.784,-0.3189 0.2,-0.1196 0.505,-0.2939 0.77,-0.4384 0.539,-0.3189 1.114,-0.578 1.678,-0.847 1.154,-0.4883 2.333,-0.9268 3.552,-1.2108 2.427,-0.6078 4.955,-0.822 7.457,-0.6576 4.995,0.3338 9.915,1.9381 14.221,4.4393 2.148,1.2755 4.116,2.8449 5.974,4.5339 1.868,1.6791 3.662,3.4628 5.6,5.1219 1.928,1.6542 4.041,3.1788 6.433,4.1852 2.383,1.0214 5.005,1.4499 7.588,1.4051 l -0.175,-0.9268 c -1.139,0.3737 -2.373,0.6428 -3.591,0.8022 -1.224,0.1544 -2.468,0.2491 -3.702,0.1794 -1.239,-0.025 -2.457,-0.2292 -3.661,-0.4933 -0.59,-0.1794 -1.184,-0.3388 -1.758,-0.5481 l -0.85,-0.3637 c -0.279,-0.1245 -0.574,-0.2292 -0.834,-0.3936 l -0.799,-0.4584 c -0.27,-0.1494 -0.534,-0.2989 -0.774,-0.4982 l -0.739,-0.553 c -0.25,-0.1794 -0.5,-0.3638 -0.71,-0.588 -0.439,-0.4334 -0.889,-0.842 -1.323,-1.2954 l -1.294,-1.3901 c -1.738,-1.8335 -3.532,-3.6321 -5.47,-5.2763 -1.938,-1.6392 -4.036,-3.1389 -6.373,-4.1902 -1.154,-0.553 -2.373,-0.9516 -3.597,-1.3103 -1.234,-0.3189 -2.477,-0.6029 -3.731,-0.7873 -1.254,-0.2042 -2.508,-0.3587 -3.787,-0.4484 -1.273,-0.0598 -2.552,-0.0149 -3.816,0.1296 -1.263,0.1445 -2.517,0.3986 -3.741,0.7473 -0.609,0.1844 -1.219,0.3737 -1.808,0.6079 -0.3,0.1096 -0.59,0.2341 -0.884,0.3587 -0.145,0.0648 -0.29,0.1295 -0.435,0.1993 l -0.215,0.1046 -0.11,0.0548 c -0.005,0.005 -0.065,0.0299 -0.025,0.015 0.05,-0.01 0.155,0.0598 0.145,0.1096 z m -0.284,0.1794 c 0.029,0.0348 0.164,0.0847 0.244,0.0448 l 0.08,-0.0349 0.105,-0.0498 0.21,-0.0996 0.429,-0.1894 c 0.29,-0.1196 0.58,-0.2391 0.875,-0.3438 0.584,-0.2192 1.183,-0.4035 1.788,-0.5779 1.209,-0.3338 2.442,-0.568 3.686,-0.6976 1.244,-0.1295 2.498,-0.1594 3.747,-0.0847 1.238,0.0997 2.492,0.2691 3.731,0.4833 1.244,0.1944 2.462,0.4833 3.666,0.8122 1.194,0.3637 2.378,0.7623 3.497,1.3153 2.268,1.0463 4.301,2.5311 6.194,4.1653 1.893,1.6392 3.646,3.4378 5.359,5.2813 l 1.269,1.3951 c 0.43,0.4633 0.909,0.9068 1.364,1.3651 0.22,0.2392 0.479,0.4335 0.739,0.6228 l 0.769,0.588 c 0.25,0.2092 0.53,0.3736 0.809,0.5331 l 0.84,0.4882 c 0.274,0.1794 0.579,0.289 0.874,0.4236 l 0.889,0.3886 c 0.604,0.2292 1.229,0.4036 1.848,0.5979 1.259,0.2889 2.538,0.5181 3.826,0.558 1.289,0.0847 2.578,0 3.856,-0.1495 1.284,-0.1594 2.533,-0.4085 3.797,-0.8121 h 0.005 c 0.25,-0.0847 0.379,-0.3538 0.294,-0.6029 -0.069,-0.1993 -0.259,-0.3238 -0.464,-0.3188 h -0.01 c -2.468,0.0647 -4.94,-0.3139 -7.218,-1.2606 -2.283,-0.9317 -4.336,-2.3816 -6.254,-3.9859 -3.826,-3.2435 -7.298,-7.07 -11.768,-9.621 -4.441,-2.5211 -9.421,-4.0805 -14.526,-4.3745 -2.547,-0.1445 -5.12,0.0996 -7.587,0.7424 -1.239,0.2989 -2.438,0.7573 -3.607,1.2705 -0.574,0.279 -1.154,0.548 -1.698,0.8769 -0.28,0.1694 -0.54,0.289 -0.859,0.5281 -0.32,0.2342 -0.565,0.5281 -0.799,0.7225 z"
           fill="#d4b0a5"
           id="path1455" /><path
           d="m 333.94,48.1664 c 0.62,1.3053 0.24,2.9744 -0.869,3.8713 -0.539,0.4583 -1.234,0.7324 -1.933,0.6776 -0.694,-0.0449 -1.364,-0.3887 -1.798,-0.9317 -0.44,-0.5381 -0.645,-1.2506 -0.44,-1.9133 0.18,-0.6576 0.74,-1.2107 1.399,-1.3602 0.664,-0.1544 1.403,0.1894 1.718,0.7972 0.35,0.583 0.11,1.435 -0.534,1.7439 -0.05,0.0249 -0.07,0.0797 -0.045,0.1295 0.025,0.0448 0.08,0.0698 0.125,0.0498 h 0.005 c 0.749,-0.3139 1.109,-1.3153 0.704,-2.0527 -0.36,-0.7274 -1.234,-1.1559 -2.038,-0.9815 -0.799,0.1694 -1.449,0.8021 -1.678,1.5744 -0.255,0.7723 -0.025,1.6591 0.489,2.257 0.505,0.6178 1.274,1.0015 2.068,1.0463 0.799,0.0598 1.589,-0.269 2.173,-0.7772 0.599,-0.5033 1.014,-1.2108 1.169,-1.9731 0.16,-0.7623 0.03,-1.5644 -0.305,-2.257 -0.03,-0.0598 -0.1,-0.0797 -0.155,-0.0548 -0.055,0.0299 -0.08,0.0997 -0.055,0.1545 z"
           fill="#d4b0a5"
           id="path1457" /><path
           d="m 333.621,45.7499 -0.14,-0.1495 -0.035,-0.0398 c -0.025,0.005 0.015,0.0249 0.015,0.0349 l 0.065,0.0797 c 0.085,0.1096 0.165,0.2192 0.245,0.3288 0.154,0.2242 0.304,0.4534 0.444,0.6926 0.275,0.4733 0.515,0.9665 0.719,1.4698 0.405,1.0114 0.655,2.0826 0.715,3.1638 0.065,1.0811 -0.065,2.1623 -0.36,3.1937 -0.29,1.0363 -0.774,2.0029 -1.304,2.9545 -1.049,1.9083 -2.367,3.6421 -3.546,5.5355 -0.29,0.4783 -0.57,0.9715 -0.794,1.5196 -0.215,0.5431 -0.395,1.1559 -0.32,1.8435 0.045,0.3388 0.165,0.6726 0.34,0.9665 0.184,0.289 0.404,0.5381 0.649,0.7424 0.469,0.3986 1.059,0.7175 1.743,0.7972 0.68,0.0847 1.369,-0.1246 1.893,-0.4584 0.54,-0.3288 0.954,-0.7673 1.324,-1.2157 0.729,-0.9118 1.249,-1.9182 1.698,-2.9446 0.44,-1.0214 0.805,-2.1025 1.004,-3.2036 0.215,-1.0962 0.325,-2.2072 0.36,-3.3183 0.015,-1.1111 -0.055,-2.2221 -0.22,-3.3183 -0.2,-1.0911 -0.444,-2.1773 -0.859,-3.2036 -0.784,-2.0677 -2.028,-3.956 -3.616,-5.4757 z m -0.01,0.01 c 1.528,1.5794 2.682,3.4926 3.376,5.5503 0.37,1.0214 0.57,2.0976 0.725,3.1688 0.12,1.0762 0.15,2.1624 0.09,3.2436 -0.155,2.1623 -0.59,4.2948 -1.549,6.223 -0.464,0.9665 -1.004,1.9032 -1.678,2.6855 -0.665,0.7772 -1.544,1.3801 -2.383,1.2306 -0.414,-0.0697 -0.829,-0.289 -1.199,-0.5879 -0.369,-0.284 -0.609,-0.6228 -0.679,-1.0314 -0.07,-0.4135 0.025,-0.8968 0.195,-1.3701 0.17,-0.4783 0.414,-0.9566 0.669,-1.425 1.059,-1.8783 2.328,-3.7119 3.312,-5.6998 0.494,-0.9816 0.959,-2.0179 1.214,-3.109 0.259,-1.0862 0.344,-2.2172 0.229,-3.3233 -0.109,-1.1061 -0.414,-2.1872 -0.869,-3.1937 -0.225,-0.5032 -0.489,-0.9915 -0.789,-1.4499 -0.15,-0.2291 -0.305,-0.4583 -0.474,-0.6776 -0.085,-0.1096 -0.17,-0.2142 -0.26,-0.3188 l -0.07,-0.0797 c -0.01,-0.005 -0.025,-0.0449 -0.035,-0.02 l 0.035,0.0349 0.145,0.1445 z"
           fill="#d4b0a5"
           id="path1459" /><path
           d="m 317.506,45.1072 c 1.989,-2.6905 4.511,-4.9774 7.428,-6.5817 2.897,-1.6293 6.169,-2.566 9.476,-2.7952 1.653,-0.1195 3.317,-0.0697 4.965,0.0997 1.648,0.1794 3.277,0.5231 4.88,0.9616 1.604,0.4285 3.162,1.0214 4.695,1.6541 1.519,0.6677 3.022,1.3901 4.466,2.2172 2.917,1.6043 5.644,3.5275 8.277,5.5803 2.662,2.0378 5.46,3.946 8.511,5.3959 3.033,1.4349 6.359,2.4961 9.766,2.3218 0.844,-0.0698 1.688,-0.1943 2.502,-0.4335 0.81,-0.2441 1.599,-0.568 2.328,-0.9965 1.444,-0.842 2.702,-2.0527 3.502,-3.5225 -0.42,0.7224 -0.974,1.3602 -1.579,1.9282 -0.609,0.568 -1.284,1.0612 -2.013,1.4548 -0.729,0.3986 -1.508,0.6975 -2.308,0.9068 -0.804,0.2093 -1.628,0.3089 -2.452,0.3538 -3.327,0.1046 -6.574,-0.9866 -9.536,-2.4514 -2.967,-1.4947 -5.739,-3.3681 -8.366,-5.4158 -2.628,-2.0727 -5.375,-4.0457 -8.322,-5.6799 -1.464,-0.8321 -2.992,-1.5545 -4.536,-2.2222 -1.563,-0.6327 -3.147,-1.2256 -4.78,-1.6541 -3.252,-0.8819 -6.663,-1.3054 -10.04,-0.9915 -3.367,0.2939 -6.679,1.3004 -9.591,3.0143 -2.902,1.7189 -5.399,4.0806 -7.273,6.8558 z"
           fill="#d4b0a5"
           id="path1461" /><path
           d="m 352.642,69.6803 c 0,-0.1445 -0.105,-0.2691 -0.255,-0.289 -0.305,-0.0399 -7.522,-1.0662 -8.711,-9.0629 -1.339,-8.9883 -2.223,-14.9273 -14.256,-17.7772 -0.155,-0.0348 -0.315,0.0598 -0.35,0.2143 -0.035,0.1544 0.06,0.3139 0.215,0.3487 11.653,2.7603 12.513,8.5448 13.816,17.2989 1.254,8.4351 9.136,9.5412 9.211,9.5562 0.16,0.0199 0.305,-0.0897 0.325,-0.2492 0.005,-0.0149 0.005,-0.0298 0.005,-0.0398 z"
           fill="#d4b0a5"
           id="path1463" /></g><g
         clip-path="url(#clip0_15_38)"
         id="g2211"
         transform="translate(878.23275,1855.3189)"
         style="fill:none"><path
           d="m 79.6882,46.6927 c 1.2088,-1.7439 1.2688,-4.24 0.0899,-6.0785 -1.1638,-1.8684 -3.3717,-2.9147 -5.5395,-2.9197 -2.1879,-0.0449 -4.3507,1.0014 -5.7194,2.7104 -1.3386,1.7239 -1.948,3.9361 -1.7732,6.0835 0.1698,2.1474 1.1439,4.225 2.7123,5.7148 1.5834,1.4847 3.6314,2.3367 5.7294,2.6506 1.0539,0.1495 2.1279,0.1146 3.1768,-0.0299 1.054,-0.1545 2.068,-0.4933 3.022,-0.9367 0.9591,-0.4534 1.8232,-1.0712 2.6125,-1.7637 0.7792,-0.7075 1.4285,-1.5396 1.988,-2.4215 0.0449,-0.0697 0.025,-0.1644 -0.045,-0.2092 -0.0699,-0.0449 -0.1598,-0.025 -0.2048,0.0398 l -0.005,0.005 c -0.5794,0.837 -1.2287,1.6193 -2.003,2.272 -0.7842,0.6377 -1.6284,1.1957 -2.5575,1.5943 -0.929,0.3837 -1.8931,0.6776 -2.8921,0.8072 -0.994,0.1146 -2.003,0.1245 -2.992,-0.0349 -1.9631,-0.3239 -3.8612,-1.1958 -5.2848,-2.546 -1.4186,-1.3652 -2.2928,-3.2635 -2.4376,-5.2166 -0.1549,-1.9481 0.4345,-3.9609 1.6234,-5.5005 1.1888,-1.5196 3.0969,-2.4812 5.05,-2.4613 1.9231,0 3.9561,0.8321 5.04,2.4713 0.5445,0.8071 0.8592,1.7687 0.8991,2.7552 0.045,0.9865 -0.2198,1.983 -0.7093,2.8599 -0.0349,0.0648 -0.015,0.1445 0.05,0.1794 0.0499,0.0498 0.1298,0.0299 0.1698,-0.0249 z"
           fill="#d4b0a5"
           id="path2193" /><path
           d="M 73.859,54.2161 C 73.849,54.1662 73.794,54.0516 73.7041,54.0068 73.6042,53.962 73.6292,53.9769 73.5893,53.962 L 73.4444,53.9072 73.1597,53.7926 C 72.9699,53.7178 72.78,53.6331 72.5952,53.5534 72.2206,53.384 71.851,53.2096 71.4913,53.0103 70.762,52.6317 70.0727,52.1882 69.3984,51.7249 68.0647,50.7782 66.8659,49.6522 65.9068,48.3468 64.9578,47.0414 64.2285,45.5766 63.8489,44.0072 63.4592,42.4278 63.3094,40.7985 63.2145,39.1493 63.0896,37.5052 63.0397,35.8012 62.4602,34.152 62.1705,33.3349 61.7359,32.5577 61.1715,31.895 60.6121,31.2274 59.9327,30.6793 59.2134,30.2159 57.7599,29.3042 56.1764,28.7013 54.568,28.223 52.9596,27.7546 51.3212,27.4158 49.6828,27.1219 h -0.005 l -0.0499,0.3737 c 0.7443,0.1743 1.4236,0.7224 1.9231,1.3352 0.5095,0.6328 0.8741,1.3702 1.1589,2.1425 0.5694,1.5445 0.7942,3.2236 0.8541,4.8877 0.0599,0.842 0.02,1.6641 0.055,2.526 0.0399,0.872 0.0099,1.7489 0.1898,2.6158 0.1898,1.7488 0.8042,3.4528 1.6483,5.0073 0.8292,1.5794 2.093,2.8898 3.4716,3.9759 0.3597,0.2541 0.6893,0.5581 1.074,0.7723 l 1.1288,0.6776 c 0.7893,0.3737 1.5635,0.7872 2.3927,1.0612 1.6234,0.6328 3.3117,1.0463 5.01,1.3403 l 1.2788,0.1993 1.2837,0.1395 0.6394,0.0698 c 0.2397,0.0149 0.4895,0.0299 0.7392,0.0299 0.5145,0 0.9691,-0.0648 1.3837,-0.0598 z M 73.5043,54.1513 C 73.0648,54.0766 72.6702,53.9371 72.3305,53.8524 72.1557,53.8125 71.9808,53.7876 71.796,53.7627 L 71.1666,53.663 69.9129,53.4587 68.6691,53.1947 C 67.0207,52.821 65.3823,52.3825 63.8439,51.7149 62.3004,51.0722 60.8218,50.27 59.5481,49.2187 L 59.0586,48.8401 58.619,48.4066 58.1795,47.9731 C 58.0296,47.8336 57.8897,47.6842 57.7699,47.5197 L 57.0056,46.5581 C 56.7858,46.2144 56.586,45.8556 56.3712,45.5118 56.1415,45.173 56.0016,44.7844 55.8368,44.4107 55.6819,44.0321 55.4871,43.6684 55.3972,43.2648 L 55.0525,42.084 C 54.9576,41.6854 54.9127,41.2718 54.8427,40.8683 54.6679,40.0611 54.6979,39.2241 54.633,38.397 54.583,37.56 54.603,36.6731 54.5231,35.8161 54.3832,34.0922 54.0835,32.3484 53.3992,30.7142 53.0595,29.8971 52.59,29.1248 51.9856,28.4671 c -0.6144,-0.6477 -1.3737,-1.2057 -2.3327,-1.3303 -0.1049,-0.0149 -0.1998,0.0598 -0.2098,0.1645 -0.015,0.0996 0.0599,0.1943 0.1598,0.2092 h 0.005 c 1.6184,0.3488 3.2268,0.7523 4.7903,1.2655 1.5634,0.5033 3.0969,1.1261 4.4456,2.0129 0.6643,0.4534 1.2787,0.9716 1.7832,1.5744 0.5045,0.6029 0.8892,1.2955 1.1489,2.0428 0.5245,1.4997 0.5694,3.1589 0.6843,4.808 0.1099,1.6542 0.2748,3.3382 0.6943,4.9824 0.4196,1.6541 1.1889,3.2186 2.2278,4.5589 1.034,1.3502 2.3128,2.4912 3.7064,3.4328 0.7093,0.4534 1.4336,0.8819 2.1978,1.2406 0.3747,0.1894 0.7643,0.3538 1.1489,0.5132 0.1948,0.0748 0.3896,0.1545 0.5894,0.2242 l 0.2997,0.1047 0.1499,0.0498 c 0.01,0 0.0849,0.0349 0.0349,0.005 -0.0399,-0.0399 -0.0449,-0.1445 -0.005,-0.1744 z"
           fill="#d4b0a5"
           id="path2195" /><path
           d="m 63.9138,51.8146 c -1.1888,-0.4136 -2.3827,-1.0414 -3.4716,-1.7588 -1.1039,-0.7125 -2.1279,-1.5346 -3.0869,-2.4264 -1.8832,-1.8236 -3.5116,-3.9212 -4.7504,-6.243 -0.6243,-1.1509 -1.1588,-2.3516 -1.6034,-3.5923 -0.4445,-1.2456 -0.8142,-2.521 -1.1938,-3.8115 -0.3846,-1.2904 -0.7792,-2.6008 -1.3287,-3.8763 -0.5494,-1.2705 -1.2687,-2.5161 -2.2478,-3.5325 -0.974,-1.0164 -2.1079,-1.8734 -3.3467,-2.5011 -1.2138,-0.6826 -2.6424,-1.0912 -4.066,-1.0762 -1.4335,0 -2.8371,0.4733 -4.016,1.2506 -1.1738,0.7922 -2.1229,1.9281 -2.6324,3.2584 -0.5195,1.3204 -0.5195,2.8848 0.1449,4.1703 0.3197,0.6427 0.7842,1.2057 1.3237,1.6591 0.5344,0.4434 1.1338,0.8669 1.8332,1.0662 1.3786,0.4534 2.992,0.0798 3.996,-0.9815 0.4995,-0.5182 0.8392,-1.2655 0.7443,-2.0179 -0.0849,-0.7623 -0.5745,-1.3751 -1.1139,-1.8285 -0.0949,-0.0797 -0.2398,-0.0648 -0.3197,0.0299 -0.0799,0.0947 -0.0649,0.2342 0.025,0.3139 l 0.01,0.01 c 0.4795,0.4135 0.8641,0.9366 0.919,1.5296 0.065,0.5879 -0.2047,1.1808 -0.6343,1.6192 -0.8692,0.8919 -2.2828,1.2058 -3.4616,0.7922 -0.5994,-0.1744 -1.1239,-0.558 -1.6134,-0.9715 -0.4845,-0.4186 -0.8841,-0.9268 -1.1539,-1.4898 -0.5594,-1.131 -0.5444,-2.4812 -0.0699,-3.6521 0.4695,-1.1758 1.3387,-2.1922 2.4076,-2.8897 1.069,-0.6926 2.3377,-1.0762 3.6114,-1.0513 1.2688,0.0149 2.5226,0.3936 3.6315,1.0563 1.1538,0.6178 2.1728,1.4349 3.042,2.3765 1.7482,1.9083 2.4875,4.4892 3.1968,7.0601 0.3447,1.2954 0.7293,2.6058 1.1689,3.9012 0.4545,1.2954 1.004,2.5609 1.6533,3.7816 1.3137,2.4165 3.027,4.6237 5.055,6.502 2.078,1.8236 4.4057,3.3731 7.138,4.1553 0.2248,0.0648 0.4595,-0.0648 0.5245,-0.289 0.0649,-0.2192 -0.055,-0.4434 -0.2698,-0.5181 z"
           fill="#d4b0a5"
           id="path2197" /><path
           d="m 87.5105,43.9374 c -0.5245,2.9745 -1.8632,5.8493 -3.8063,8.1462 -1.948,2.3068 -4.5355,4.0258 -7.3927,4.9774 -1.4286,0.4783 -2.9071,0.8221 -4.4156,0.9815 -0.3746,0.0598 -0.7543,0.0847 -1.1289,0.1096 -0.3796,0.0249 -0.7543,0.0648 -1.1339,0.0798 -0.7592,0.0049 -1.5185,0.0498 -2.2827,0.0049 -3.047,-0.0996 -6.089,-0.5331 -8.9961,-1.4199 -2.9122,-0.867 -5.6844,-2.1674 -8.3068,-3.7219 -2.6175,-1.5744 -5.08,-3.4179 -7.5276,-5.3162 -2.4526,-1.8883 -4.9102,-3.8464 -7.6974,-5.3859 -1.3937,-0.7673 -2.8722,-1.415 -4.4307,-1.8385 C 30.0072,40.4398 29.6026,40.37 29.213,40.2803 28.8184,40.2006 28.4138,40.1558 28.0142,40.096 27.6146,40.0561 27.215,40.0362 26.8154,40.0063 l -1.2088,-0.0199 c -3.2418,0.0648 -6.4387,1.2705 -8.9062,3.3531 -2.4726,2.0777 -4.1609,5.0721 -4.5805,8.2658 -0.4845,3.1887 0.5444,6.6016 2.7672,8.9434 2.1879,2.3666 5.4597,3.7118 8.6865,3.4029 0.4046,-0.0199 0.7992,-0.1295 1.1938,-0.1993 0.3846,-0.1195 0.7792,-0.2142 1.1489,-0.3786 0.7542,-0.289 1.4535,-0.7075 2.0879,-1.1958 1.2787,-0.9815 2.2578,-2.3318 2.8122,-3.8364 0.2748,-0.7524 0.4346,-1.5446 0.5045,-2.3418 0.055,-0.8021 -0.0249,-1.6192 -0.2447,-2.3915 -0.4296,-1.5545 -1.4336,-2.9396 -2.7723,-3.8314 -1.3337,-0.8969 -2.9721,-1.3453 -4.5855,-1.136 -1.6034,0.2292 -3.0769,1.1957 -3.9211,2.5659 -0.4196,0.6826 -0.6893,1.4598 -0.7792,2.257 -0.1099,0.7972 0.01,1.6293 0.3396,2.3666 0.6444,1.4848 2.1579,2.5361 3.7713,2.6258 0.0849,0.0049 0.1599,-0.0598 0.1648,-0.1395 0.005,-0.0847 -0.0599,-0.1545 -0.1448,-0.1645 -1.5035,-0.0996 -2.8872,-1.0911 -3.4666,-2.4662 -0.2947,-0.6826 -0.3946,-1.4399 -0.2897,-2.1773 0.0949,-0.7424 0.3497,-1.4599 0.7493,-2.0877 0.7992,-1.2605 2.1678,-2.1374 3.6414,-2.3317 1.4735,-0.1794 3.022,0.2541 4.2408,1.1011 1.2338,0.842 2.1479,2.1325 2.5275,3.5674 0.1948,0.7174 0.2597,1.4648 0.2048,2.2022 -0.0749,0.7424 -0.2248,1.4798 -0.4895,2.1773 -0.5345,1.3901 -1.4536,2.6357 -2.6474,3.5325 -0.5944,0.4484 -1.2438,0.8271 -1.9431,1.0862 -0.3397,0.1544 -0.7043,0.2291 -1.064,0.3388 -0.3646,0.0597 -0.7292,0.1544 -1.0989,0.1644 -1.4735,0.1196 -3.007,-0.1395 -4.3806,-0.7125 -1.3787,-0.573 -2.6225,-1.4549 -3.6215,-2.556 -2.033,-2.2072 -2.9221,-5.3261 -2.4376,-8.2558 0.4296,-2.9446 2.028,-5.6749 4.3308,-7.5632 2.3027,-1.8883 5.2548,-2.9496 8.2218,-2.9745 l 1.1189,0.0299 c 0.3747,0.0349 0.7493,0.0548 1.1189,0.0947 0.3647,0.0647 0.7343,0.1046 1.099,0.1793 0.3596,0.0897 0.7292,0.1545 1.0839,0.2641 1.4336,0.4085 2.8072,1.0264 4.1259,1.7737 2.6324,1.4997 5.045,3.4279 7.4926,5.3212 2.4476,1.9083 4.9501,3.8016 7.6475,5.4308 2.6973,1.6242 5.5945,2.9695 8.6464,3.8364 3.042,0.8969 6.2039,1.3204 9.3558,1.3951 3.1519,0.0847 6.3737,-0.299 9.3708,-1.405 2.997,-1.0862 5.7393,-2.9695 7.7024,-5.4856 1.948,-2.5161 3.2318,-5.5056 3.6064,-8.6544 0.015,-0.1346 -0.0799,-0.2541 -0.2148,-0.2691 -0.1299,-0.0149 -0.2447,0.0748 -0.2697,0.1993 z"
           fill="#d4b0a5"
           id="path2199" /><path
           d="m 82.2007,53.6979 c -0.2947,0.1495 -0.5744,0.2043 -0.7842,0.3189 -0.1998,0.1195 -0.5045,0.2939 -0.7693,0.4384 -0.5394,0.3189 -1.1139,0.578 -1.6783,0.847 -1.1539,0.4883 -2.3327,0.9267 -3.5515,1.2107 -2.4276,0.6079 -4.9551,0.8221 -7.4576,0.6577 -4.9951,-0.3338 -9.9153,-1.9381 -14.221,-4.4393 -2.1479,-1.2755 -4.116,-2.8449 -5.9741,-4.534 -1.8682,-1.679 -3.6614,-3.4627 -5.5995,-5.1218 -1.9281,-1.6542 -4.041,-3.1788 -6.4336,-4.1852 -2.3827,-1.0214 -5.0051,-1.4499 -7.5876,-1.4051 l 0.1749,0.9268 c 1.1388,-0.3737 2.3726,-0.6428 3.5914,-0.8022 1.2238,-0.1545 2.4676,-0.2491 3.7014,-0.1794 1.2387,0.0249 2.4575,0.2292 3.6614,0.4933 0.5894,0.1793 1.1838,0.3388 1.7582,0.548 l 0.8492,0.3638 c 0.2797,0.1245 0.5744,0.2291 0.8342,0.3936 l 0.7992,0.4583 c 0.2697,0.1495 0.5344,0.299 0.7742,0.4983 l 0.7393,0.553 c 0.2497,0.1794 0.4995,0.3637 0.7093,0.5879 0.4395,0.4335 0.8891,0.8421 1.3237,1.2955 l 1.2937,1.39 c 1.7383,1.8336 3.5315,3.6322 5.4696,5.2764 1.9381,1.6392 4.036,3.1389 6.3737,4.1902 1.1539,0.553 2.3727,0.9516 3.5965,1.3103 1.2337,0.3189 2.4775,0.6029 3.7313,0.7873 1.2537,0.2042 2.5075,0.3587 3.7862,0.4484 1.2738,0.0598 2.5525,0.0149 3.8163,-0.1296 1.2637,-0.1445 2.5175,-0.3986 3.7413,-0.7473 0.6094,-0.1844 1.2188,-0.3737 1.8082,-0.6079 0.2997,-0.1096 0.5894,-0.2342 0.8841,-0.3587 0.1449,-0.0648 0.2897,-0.1296 0.4346,-0.1993 l 0.2148,-0.1046 0.1099,-0.0548 c 0.005,-0.005 0.0649,-0.0299 0.025,-0.015 -0.05,0.01 -0.1549,-0.0598 -0.1449,-0.1096 z m 0.2847,-0.1794 c -0.03,-0.0348 -0.1648,-0.0847 -0.2447,-0.0448 l -0.08,0.0349 -0.1049,0.0498 -0.2097,0.0996 -0.4296,0.1894 c -0.2897,0.1195 -0.5795,0.2391 -0.8742,0.3437 -0.5844,0.2193 -1.1838,0.4036 -1.7882,0.578 -1.2088,0.3338 -2.4426,0.568 -3.6864,0.6975 -1.2437,0.1296 -2.4975,0.1595 -3.7463,0.0847 -1.2387,-0.0996 -2.4925,-0.269 -3.7313,-0.4833 -1.2438,-0.1943 -2.4626,-0.4832 -3.6664,-0.8121 -1.1938,-0.3637 -2.3776,-0.7623 -3.4965,-1.3153 -2.2678,-1.0463 -4.3008,-2.5311 -6.1939,-4.1653 -1.8931,-1.6392 -3.6464,-3.4378 -5.3597,-5.2813 L 47.6048,42.0989 C 47.1753,41.6356 46.6957,41.1921 46.2412,40.7337 46.0214,40.4946 45.7617,40.3003 45.5019,40.1109 L 44.7327,39.523 C 44.4829,39.3138 44.2032,39.1493 43.9235,38.9899 L 43.0843,38.5016 C 42.8096,38.3223 42.5049,38.2127 42.2102,38.0781 L 41.321,37.6895 c -0.6044,-0.2292 -1.2288,-0.4036 -1.8481,-0.5979 -1.2588,-0.289 -2.5375,-0.5181 -3.8263,-0.558 -1.2887,-0.0847 -2.5774,0 -3.8562,0.1495 -1.2837,0.1594 -2.5325,0.4085 -3.7962,0.8121 h -0.005 c -0.2498,0.0847 -0.3796,0.3537 -0.2947,0.6029 0.0699,0.1993 0.2597,0.3238 0.4645,0.3188 h 0.01 c 2.4676,-0.0647 4.9401,0.3139 7.2179,1.2606 2.2827,0.9317 4.3357,2.3816 6.2538,3.9859 3.8262,3.2435 7.2978,7.07 11.7684,9.621 4.4406,2.521 9.4207,4.0805 14.5257,4.3745 2.5475,0.1445 5.1199,-0.0997 7.5875,-0.7424 1.2388,-0.2989 2.4376,-0.7573 3.6064,-1.2705 0.5745,-0.279 1.1539,-0.5481 1.6983,-0.8769 0.2798,-0.1694 0.5395,-0.289 0.8592,-0.5281 0.3197,-0.2342 0.5644,-0.5282 0.7992,-0.7225 z"
           fill="#d4b0a5"
           id="path2201" /><path
           d="m 68.0597,48.8251 c -0.6194,-1.3054 -0.2398,-2.9745 0.8692,-3.8713 0.5394,-0.4584 1.2337,-0.7324 1.933,-0.6776 0.6944,0.0449 1.3637,0.3886 1.7983,0.9317 0.4395,0.5381 0.6443,1.2506 0.4395,1.9132 -0.1798,0.6577 -0.7392,1.2108 -1.3986,1.3602 -0.6643,0.1545 -1.4036,-0.1893 -1.7183,-0.7971 -0.3496,-0.583 -0.1099,-1.435 0.5345,-1.7439 0.0499,-0.0249 0.0699,-0.0797 0.0449,-0.1295 -0.0249,-0.0449 -0.0799,-0.0698 -0.1248,-0.0498 h -0.005 c -0.7493,0.3138 -1.1089,1.3153 -0.7043,2.0527 0.3596,0.7274 1.2337,1.1559 2.038,0.9815 0.7992,-0.1694 1.4485,-0.8021 1.6783,-1.5744 0.2547,-0.7723 0.025,-1.6591 -0.4895,-2.257 -0.5045,-0.6178 -1.2738,-1.0015 -2.068,-1.0463 -0.7992,-0.0598 -1.5884,0.269 -2.1728,0.7772 -0.5994,0.5033 -1.014,1.2107 -1.1689,1.9731 -0.1598,0.7623 -0.03,1.5644 0.3047,2.257 0.03,0.0598 0.0999,0.0797 0.1549,0.0548 0.0549,-0.0299 0.0799,-0.0997 0.0549,-0.1545 z"
           fill="#d4b0a5"
           id="path2203" /><path
           d="m 68.3794,51.2416 0.1398,0.1494 0.035,0.0399 c 0.025,-0.005 -0.015,-0.0249 -0.015,-0.0349 l -0.0649,-0.0797 c -0.0849,-0.1096 -0.1649,-0.2192 -0.2448,-0.3288 -0.1548,-0.2242 -0.3047,-0.4534 -0.4445,-0.6926 -0.2748,-0.4733 -0.5145,-0.9666 -0.7193,-1.4698 -0.4046,-1.0114 -0.6544,-2.0826 -0.7143,-3.1638 -0.065,-1.0812 0.0649,-2.1623 0.3596,-3.1937 0.2897,-1.0363 0.7743,-2.0029 1.3037,-2.9545 1.049,-1.9083 2.3677,-3.6422 3.5465,-5.5355 0.2897,-0.4783 0.5695,-0.9715 0.7942,-1.5196 0.2148,-0.5431 0.3947,-1.1559 0.3197,-1.8435 -0.0449,-0.3388 -0.1648,-0.6726 -0.3396,-0.9666 -0.1848,-0.2889 -0.4046,-0.5381 -0.6494,-0.7423 -0.4695,-0.3986 -1.0589,-0.7175 -1.7433,-0.7972 -0.6793,-0.0847 -1.3686,0.1246 -1.8931,0.4584 -0.5395,0.3288 -0.9541,0.7673 -1.3237,1.2157 -0.7293,0.9117 -1.2488,1.9182 -1.6983,2.9446 -0.4396,1.0213 -0.8042,2.1025 -1.004,3.2036 -0.2148,1.0961 -0.3247,2.2072 -0.3597,3.3183 -0.015,1.1111 0.055,2.2221 0.2198,3.3183 0.1998,1.0911 0.4446,2.1773 0.8592,3.2036 0.7842,2.0677 2.028,3.956 3.6164,5.4757 z m 0.01,-0.01 c -1.5285,-1.5794 -2.6824,-3.4926 -3.3767,-5.5504 -0.3696,-1.0213 -0.5694,-2.0975 -0.7243,-3.1688 -0.1199,-1.0761 -0.1498,-2.1623 -0.0899,-3.2435 0.1548,-2.1623 0.5894,-4.2948 1.5485,-6.223 0.4645,-0.9666 1.004,-1.9032 1.6783,-2.6855 0.6644,-0.7772 1.5435,-1.3801 2.3827,-1.2306 0.4146,0.0697 0.8291,0.289 1.1988,0.5879 0.3696,0.284 0.6094,0.6228 0.6793,1.0314 0.0699,0.4135 -0.025,0.8968 -0.1948,1.3701 -0.1698,0.4783 -0.4146,0.9566 -0.6693,1.425 -1.059,1.8783 -2.3277,3.7118 -3.3118,5.6998 -0.4945,0.9815 -0.959,2.0179 -1.2138,3.109 -0.2597,1.0862 -0.3446,2.2172 -0.2297,3.3233 0.1098,1.106 0.4145,2.1872 0.8691,3.1937 0.2248,0.5032 0.4895,0.9915 0.7892,1.4498 0.1499,0.2292 0.3047,0.4584 0.4746,0.6776 0.0849,0.1097 0.1698,0.2143 0.2597,0.3189 l 0.0699,0.0797 c 0.01,0.005 0.025,0.0449 0.035,0.02 l -0.035,-0.0349 -0.1448,-0.1445 z"
           fill="#d4b0a5"
           id="path2205" /><path
           d="m 84.4934,51.8843 c -1.988,2.6905 -4.5105,4.9774 -7.4276,6.5817 -2.8972,1.6293 -6.1689,2.566 -9.4757,2.7951 -1.6533,0.1196 -3.3167,0.0698 -4.9651,-0.0996 -1.6484,-0.1794 -3.2767,-0.5231 -4.8802,-0.9616 -1.6034,-0.4285 -3.1618,-1.0214 -4.6953,-1.6541 -1.5185,-0.6677 -3.022,-1.3901 -4.4656,-2.2172 -2.9171,-1.6043 -5.6445,-3.5275 -8.2769,-5.5803 -2.6623,-2.0378 -5.4596,-3.946 -8.5116,-5.3959 -3.032,-1.4349 -6.3587,-2.4962 -9.7653,-2.3218 -0.8442,0.0698 -1.6884,0.1943 -2.5025,0.4335 -0.8093,0.2441 -1.5985,0.568 -2.3278,0.9965 -1.4435,0.842 -2.7023,2.0527 -3.5015,3.5225 0.4196,-0.7224 0.974,-1.3602 1.5784,-1.9282 0.6094,-0.568 1.2838,-1.0612 2.0131,-1.4548 0.7292,-0.3986 1.5085,-0.6976 2.3077,-0.9068 0.8042,-0.2093 1.6284,-0.3089 2.4526,-0.3538 3.3267,-0.1046 6.5735,0.9865 9.5355,2.4514 2.9671,1.4947 5.7394,3.368 8.3668,5.4158 2.6274,2.0727 5.3747,4.0457 8.3218,5.6799 1.4635,0.8321 2.992,1.5545 4.5355,2.2222 1.5635,0.6327 3.1469,1.2256 4.7803,1.6541 3.2518,0.8819 6.6634,1.3054 10.0401,0.9915 3.3667,-0.294 6.6784,-1.3004 9.5905,-3.0143 2.9022,-1.719 5.3997,-4.0806 7.2728,-6.8558 z"
           fill="#d4b0a5"
           id="path2207" /><path
           d="m 49.3582,27.3112 c 0,0.1445 0.1049,0.269 0.2547,0.289 0.3047,0.0398 7.5226,1.0662 8.7114,9.0629 1.3387,8.9882 2.2228,14.9272 14.2559,17.7772 0.1549,0.0348 0.3147,-0.0598 0.3497,-0.2143 C 72.9649,54.0716 72.87,53.9121 72.7151,53.8772 61.0616,51.117 60.2025,45.3325 58.8987,36.5784 57.645,28.1433 49.7628,27.0372 49.6878,27.0222 c -0.1598,-0.0199 -0.3047,0.0897 -0.3246,0.2491 -0.005,0.015 -0.005,0.0299 -0.005,0.0399 z"
           fill="#d4b0a5"
           id="path2209" /></g><text
         xml:space="preserve"
         style="font-style:normal;font-variant:normal;font-weight:normal;font-stretch:normal;font-size:35.2731px;line-height:1.25;font-family:'Monallesia Script';-inkscape-font-specification:'Monallesia Script, Normal';font-variant-ligatures:normal;font-variant-caps:normal;font-variant-numeric:normal;font-variant-east-asian:normal;fill:#939580;fill-opacity:1;stroke-width:0.999978"
         x="965.39642"
         y="1914.7788"
         id="text1230"><tspan
           sodipodi:role="line"
           id="tspan1228"
           x="965.39642"
           y="1914.7788"
           style="font-style:normal;font-variant:normal;font-weight:normal;font-stretch:normal;font-size:35.2731px;font-family:'Monallesia Script';-inkscape-font-specification:'Monallesia Script, Normal';font-variant-ligatures:normal;font-variant-caps:normal;font-variant-numeric:normal;font-variant-east-asian:normal;fill:#939580;fill-opacity:1;stroke-width:0.994964">Prish</tspan></text></g></g></svg>
